<svg width="40" height="32" viewBox="0 0 71 66" fill="none" xmlns="http://www.w3.org/2000/svg">
<ellipse cx="35.8393" cy="32.6491" rx="35.1607" ry="32.6491" fill="#5CA720"/>
<path d="M47.5595 26.6634H40.5273M28.8071 26.6634H24.119M47.5595 38.6347H42.8714M31.1512 38.6347H24.119M33.4952 30.4724C34.0339 30.4724 34.5673 30.3739 35.065 30.1825C35.5627 29.9911 36.0149 29.7105 36.3958 29.3568C36.7767 29.0031 37.0789 28.5832 37.285 28.121C37.4912 27.6589 37.5973 27.1636 37.5973 26.6634C37.5973 26.1632 37.4912 25.6678 37.285 25.2057C37.0789 24.7436 36.7767 24.3237 36.3958 23.97C36.0149 23.6163 35.5627 23.3357 35.065 23.1443C34.5673 22.9528 34.0339 22.8543 33.4952 22.8543C32.4073 22.8543 31.3639 23.2556 30.5946 23.97C29.8253 24.6843 29.3931 25.6531 29.3931 26.6634C29.3931 27.6736 29.8253 28.6424 30.5946 29.3568C31.3639 30.0711 32.4073 30.4724 33.4952 30.4724V30.4724ZM38.1833 42.4437C39.2712 42.4437 40.3146 42.0424 41.0839 41.3281C41.8532 40.6138 42.2854 39.6449 42.2854 38.6347C42.2854 37.6245 41.8532 36.6556 41.0839 35.9413C40.3146 35.2269 39.2712 34.8256 38.1833 34.8256C37.0954 34.8256 36.052 35.2269 35.2827 35.9413C34.5134 36.6556 34.0812 37.6245 34.0812 38.6347C34.0812 39.6449 34.5134 40.6138 35.2827 41.3281C36.052 42.0424 37.0954 42.4437 38.1833 42.4437V42.4437Z" stroke="white" stroke-width="2.5" stroke-miterlimit="10" stroke-linecap="round" stroke-linejoin="round"/>
</svg>
